<?xml version="1.0" encoding="utf-8"?><svg viewBox="0 0 1000 1000" xmlns="http://www.w3.org/2000/svg"><defs><linearGradient gradientUnits="userSpaceOnUse" x1="500" y1="0" x2="500" y2="1000" id="bkStyle"><stop offset="0" style="stop-color: #eeeeee"/><stop offset="1" style="stop-color: rgb(165, 145, 165)"/></linearGradient></defs><rect id="background" width="1000" height="1000" style="fill: url(#bkStyle);"/><pattern id="textPattern1" x="0" y="0" width="240" height="25" patternUnits="userSpaceOnUse"><text font-family="Comic Sans MS, sans-serif" font-size="20" x="0" y="20" fill="white">FEELS GOOD MAN</text><animate attributeName="x" from="240" to="-240" dur="6s" repeatCount="indefinite"/></pattern><pattern id="textPattern2" x="0" y="0" width="240" height="25" patternUnits="userSpaceOnUse"><text font-family="Comic Sans MS, sans-serif" font-size="20" x="0" y="20" fill="white">FEELS GOOD MAN</text><animate attributeName="x" from="240" to="-240" dur="6s" repeatCount="indefinite"/></pattern><pattern id="textPattern3" x="0" y="0" width="240" height="25" patternUnits="userSpaceOnUse"><text font-family="Comic Sans MS, sans-serif" font-size="20" x="0" y="20" fill="white">FEELS GOOD MAN</text><animate attributeName="x" from="240" to="-240" dur="8s" repeatCount="indefinite"/></pattern><pattern id="textPattern4" x="0" y="0" width="240" height="25" patternUnits="userSpaceOnUse"><text font-family="Comic Sans MS, sans-serif" font-size="20" x="0" y="20" fill="white">FEELS GOOD MAN</text><animate attributeName="x" from="240" to="-240" dur="6s" repeatCount="indefinite"/></pattern><pattern id="textPattern5" x="0" y="0" width="240" height="25" patternUnits="userSpaceOnUse"><text font-family="Comic Sans MS, sans-serif" font-size="20" x="0" y="20" fill="white">FEELS GOOD MAN</text><animate attributeName="x" from="240" to="-240" dur="8s" repeatCount="indefinite"/></pattern><pattern id="textPattern6" x="0" y="0" width="240" height="25" patternUnits="userSpaceOnUse"><text font-family="Comic Sans MS, sans-serif" font-size="20" x="0" y="20" fill="white">FEELS GOOD MAN</text><animate attributeName="x" from="240" to="-240" dur="8s" repeatCount="indefinite"/></pattern><pattern id="textPattern7" x="0" y="0" width="240" height="25" patternUnits="userSpaceOnUse"><text font-family="Comic Sans MS, sans-serif" font-size="20" x="0" y="20" fill="white">FEELS GOOD MAN</text><animate attributeName="x" from="-240" to="240" dur="9s" repeatCount="indefinite"/></pattern><pattern id="gridPattern" x="-10" y="-10" width="240" height="175" patternUnits="userSpaceOnUse"><rect x="0" y="0" width="240" height="25" fill="url(#textPattern1)"/><rect x="0" y="25" width="240" height="25" fill="url(#textPattern2)"/><rect x="0" y="50" width="240" height="25" fill="url(#textPattern3)"/><rect x="0" y="75" width="240" height="25" fill="url(#textPattern4)"/><rect x="0" y="100" width="240" height="25" fill="url(#textPattern5)"/><rect x="0" y="125" width="240" height="25" fill="url(#textPattern6)"/><rect x="0" y="150" width="240" height="25" fill="url(#textPattern7)"/></pattern><rect x="0" y="0" width="1000" height="1000" fill="url(#gridPattern)"/><rect x="345" y="755" width="310" height="255" style="fill: rgb(67, 122, 37); stroke-width: 10px; stroke: rgb(32, 32, 32);"/><rect x="235" y="245" width="530" height="510" style="fill: rgb(87, 142, 57); stroke-width: 19px; stroke: rgb(42, 42, 42);"/><rect x="357" y="417" width="113" height="95" style="fill: rgb(226, 227, 226); stroke-width: 6px; stroke: rgb(55, 55, 55);"/><rect x="514" y="418" width="108" height="90" style="fill: rgb(226, 227, 226); stroke-width: 6px; stroke: rgb(55, 55, 55);"/><rect x="357" y="417" width="46" height="41" style="fill: rgb(32,32,32); stroke-width: 6px; stroke: rgb(55,55,55);"/><rect x="514" y="418" width="54" height="31" style="fill: rgb(32,32,32); stroke-width: 6px; stroke: rgb(55,55,55);"/><rect x="187" y="439" width="48" height="143" style="fill: rgb(77, 132, 47); stroke-width: 6px; stroke: rgb(42, 42, 42);"/><rect x="765" y="439" width="48" height="143" style="fill: rgb(77, 132, 47); stroke-width: 6px; stroke: rgb(42, 42, 42);"/><rect x="303" y="613" width="353" height="42" style="fill: rgb(161, 81, 52); stroke-width: 6px; stroke: rgb(55, 55, 55);"/><rect x="474" y="479" width="42" height="20" style="fill: rgb(32,32,32);"/><rect x="331" y="394" width="143" height="135" style="fill: rgb(255,255,255); fill-opacity: 0.3; stroke-width: 16px; stroke: rgb(32,32,32);"/><rect x="516" y="394" width="143" height="135" style="fill: rgb(255,255,255); fill-opacity: 0.3; stroke-width: 16px; stroke: rgb(32,32,32);"/><rect x="184" y="424" width="154" height="20" style="fill: rgb(32,32,32);"/><rect x="652" y="424" width="164" height="20" style="fill: rgb(32,32,32);"/><rect x="205" y="188" width="590" height="134" style="fill: rgb(141, 235, 5); stroke-width: 0px; stroke: rgb(0, 0, 0);"/><rect x="330" y="950" width="340" height="62" style="fill: rgb(0, 80, 225); stroke-width: 6px; stroke: rgb(32, 32, 32);"/></svg>